# xmcd
#
# Track frame offsets:
#	150
#	17992
#	35565
#	53992
#	73000
#	92360
#	110682
#	135592
#	157152
#	178950
#	198555
#
# Disc length: 2925 seconds
#
# Revision: 0
# Processed by: cddbd v1.4PL0 Copyright (c) Steve Scherf et al.
# Submitted via: dBpowerAMP V4.0
#
DISCID=a10b6b0b
DTITLE=Floyd Taylor - Legacy
DYEAR=2003
DGENRE=Blues
TTITLE0=I'm Crazy Bout That Woman In Red
TTITLE1=When We Kiss
TTITLE2=She Aint Mine
TTITLE3=Old School Style
TTITLE4=I Love Being In Love With You
TTITLE5=Im In Love With The Girl Next Door
TTITLE6=Fantasy Lady
TTITLE7=Caught Between Two Hearts
TTITLE8=Back Up Lovin
TTITLE9=Part Time Lover
TTITLE10=When You Finally Realize
EXTD=
EXTT0=
EXTT1=
EXTT2=
EXTT3=
EXTT4=
EXTT5=
EXTT6=
EXTT7=
EXTT8=
EXTT9=
EXTT10=
PLAYORDER=
